<svg xmlns="http://www.w3.org/2000/svg" xmlns:xlink="http://www.w3.org/1999/xlink" viewBox="0 0 308.7 123.39"><defs><style>.cls-1{fill:#253570;}.cls-2{fill:none;}.cls-3{fill:url(#New_Gradient_Swatch_copy);}.cls-4{fill:url(#New_Gradient_Swatch_copy-2);}.cls-5{fill:url(#New_Gradient_Swatch_copy-3);}.cls-6{fill:url(#New_Gradient_Swatch_copy-4);}.cls-7{fill:url(#New_Gradient_Swatch_copy-5);}.cls-8{fill:url(#New_Gradient_Swatch_copy-6);}.cls-9{fill:url(#New_Gradient_Swatch_copy-7);}.cls-10{fill:url(#New_Gradient_Swatch_copy-8);}</style><linearGradient id="New_Gradient_Swatch_copy" x1="109.3" y1="5.03" x2="103.53" y2="15.04" gradientUnits="userSpaceOnUse"><stop offset="0.02" stop-color="#297cc1"/><stop offset="0.17" stop-color="#3bb6ad"/><stop offset="0.19" stop-color="#3fb7ac"/><stop offset="0.4" stop-color="#7ec89e"/><stop offset="0.6" stop-color="#afd593"/><stop offset="0.77" stop-color="#d3de8b"/><stop offset="0.91" stop-color="#e9e486"/><stop offset="1" stop-color="#f1e684"/></linearGradient><linearGradient id="New_Gradient_Swatch_copy-2" x1="91.72" y1="12.55" x2="41.49" y2="99.54" xlink:href="#New_Gradient_Swatch_copy"/><linearGradient id="New_Gradient_Swatch_copy-3" x1="219.3" y1="12.04" x2="149.91" y2="132.23" xlink:href="#New_Gradient_Swatch_copy"/><linearGradient id="New_Gradient_Swatch_copy-4" x1="302.93" y1="49.93" x2="295.83" y2="62.23" xlink:href="#New_Gradient_Swatch_copy"/><linearGradient id="New_Gradient_Swatch_copy-5" x1="179.87" y1="107.57" x2="172.77" y2="119.86" xlink:href="#New_Gradient_Swatch_copy"/><linearGradient id="New_Gradient_Swatch_copy-6" x1="112.29" y1="105.54" x2="105.19" y2="117.84" xlink:href="#New_Gradient_Swatch_copy"/><linearGradient id="New_Gradient_Swatch_copy-7" x1="82.47" y1="100.28" x2="75.37" y2="112.57" xlink:href="#New_Gradient_Swatch_copy"/><linearGradient id="New_Gradient_Swatch_copy-8" x1="14.16" y1="85.1" x2="7.06" y2="97.39" xlink:href="#New_Gradient_Swatch_copy"/></defs><g id="Layer_10" data-name="Layer 10"><path class="cls-1" d="M22.16,50.38c-.15.71-.31,1.63-.46,2.73a25.67,25.67,0,0,1-3.26.64,22.89,22.89,0,0,1-2.74.16,15.25,15.25,0,0,1-4.39-.58,7.57,7.57,0,0,1-3.33-2A8.74,8.74,0,0,1,6,48a12.93,12.93,0,0,1-.6-4,13.11,13.11,0,0,1,1.11-5.4,8.76,8.76,0,0,1,3.35-3.91,10.37,10.37,0,0,1,5.67-1.43,10.94,10.94,0,0,1,3.4.52,6.69,6.69,0,0,1,2.7,1.57A7.13,7.13,0,0,1,23.28,38a9.5,9.5,0,0,1,.58,3.39,8.71,8.71,0,0,1-.11,1.36H8.84c-.05.72-.07,1.27-.07,1.64a8.27,8.27,0,0,0,.86,3.78,5.73,5.73,0,0,0,2.53,2.62,8.18,8.18,0,0,0,3.87.89A19.46,19.46,0,0,0,22.16,50.38ZM9,41.08H20.64a10,10,0,0,0-.16-1.91,5.76,5.76,0,0,0-.5-1.42,4.14,4.14,0,0,0-1-1.27,4.36,4.36,0,0,0-1.52-.82,6.34,6.34,0,0,0-1.93-.28,7.11,7.11,0,0,0-2.12.31,6.33,6.33,0,0,0-1.77.86,5.69,5.69,0,0,0-1.31,1.28,5.88,5.88,0,0,0-.8,1.42A12.27,12.27,0,0,0,9,41.08Z"/><path class="cls-1" d="M135.18,47.35c.11-.57.24-1.42.37-2.54a35.07,35.07,0,0,1,4.07-.83,26,26,0,0,1,3.37-.23,15.61,15.61,0,0,1,3.29.33,6.73,6.73,0,0,1,2.55,1,3.62,3.62,0,0,1,1.35,1.66,6.05,6.05,0,0,1,.33,2q0,1.35-.21,4.53c-.13,2.11-.24,4.07-.31,5.86s-.1,3.4-.1,4.81c-.71,0-1.28,0-1.72,0s-1,0-1.78,0l.41-5.33.3-6.31c-.46.35-.8.6-1,.74a5.53,5.53,0,0,1-.77.4c-.29.12-.6.24-1,.35s-1,.31-2,.58-1.71.48-2.12.62a13.07,13.07,0,0,0-2.13.86,6.21,6.21,0,0,0-1.31.94,3.13,3.13,0,0,0-.74,1,3.39,3.39,0,0,0-.26,1.3,2.83,2.83,0,0,0,.63,1.84A3.19,3.19,0,0,0,138,62.08a7.24,7.24,0,0,0,2.27.31,13,13,0,0,0,1.72-.12,13.88,13.88,0,0,0,2.41-.59,18.48,18.48,0,0,0-.63,2.33c-.95.18-1.73.29-2.32.34s-1.17.07-1.7.07a11.1,11.1,0,0,1-4.18-.63,4.47,4.47,0,0,1-2.25-1.9,5.48,5.48,0,0,1-.74-2.78,4.91,4.91,0,0,1,.26-1.62,5.13,5.13,0,0,1,.72-1.35,5.5,5.5,0,0,1,1.27-1.21,9,9,0,0,1,1.74-1c.61-.26,1.32-.52,2.12-.77s2.11-.6,3.89-1a14.9,14.9,0,0,0,1.47-.4c.4-.13.76-.27,1.07-.4a3.57,3.57,0,0,0,.82-.46,3.23,3.23,0,0,0,.64-.64,2.58,2.58,0,0,0,.43-.77,2.4,2.4,0,0,0-.48-2.42,3.35,3.35,0,0,0-1.63-1,9.34,9.34,0,0,0-2.38-.27,16.84,16.84,0,0,0-2.61.2,18.17,18.17,0,0,0-2.3.49C136.94,46.69,136.14,47,135.18,47.35Z"/><path class="cls-1" d="M185.91,41.49q.39-6,.76-14.26.24-6,.37-12.4l1.81,0,1.74,0L190,26.3l-.43,11.6-.08,3.59c-.77,0-1.34,0-1.72,0Z"/><path class="cls-1" d="M237.22,67.64c-.76,0-1.3,0-1.6,0h-1.7l.24-4.22a16.09,16.09,0,0,1-1.08,1.69A7.45,7.45,0,0,1,232,66.2a7.53,7.53,0,0,1-1.43.94,7.89,7.89,0,0,1-1.81.66,9.48,9.48,0,0,1-2.11.23,9.26,9.26,0,0,1-3.54-.68,7.75,7.75,0,0,1-2.8-2,7.55,7.55,0,0,1-1.66-3,12.2,12.2,0,0,1-.51-3.53,12.85,12.85,0,0,1,1-4.84,10.3,10.3,0,0,1,2.7-3.94,9.92,9.92,0,0,1,4-2.16,17.76,17.76,0,0,1,4.68-.6,25.46,25.46,0,0,1,4.08.39c.07-1.42.1-2.6.1-3.54,0-1.35,0-2.45,0-3.28l1.78,0,1.78,0-.57,11-.39,12.64Zm-2.81-17.42a12.05,12.05,0,0,0-2-.45,12.88,12.88,0,0,0-1.61-.1,11.87,11.87,0,0,0-3.59.54,7.72,7.72,0,0,0-3,1.77,8.19,8.19,0,0,0-2,3.12,10.58,10.58,0,0,0-.7,3.71,8.68,8.68,0,0,0,.66,3.39,5.3,5.3,0,0,0,2.06,2.46,5.88,5.88,0,0,0,3.26.89,6.55,6.55,0,0,0,2-.3,5.6,5.6,0,0,0,1.67-.89,6.68,6.68,0,0,0,1.41-1.58,8.45,8.45,0,0,0,1.06-2.31,16.23,16.23,0,0,0,.48-3.1q.09-1,.18-3.69Z"/></g><g id="Layer_11" data-name="Layer 11"><path class="cls-2" d="M120.77,29.81a11.26,11.26,0,0,1-2.22,1.69,13.12,13.12,0,0,1-2.48,1.06c-.69.22-1.58.48-2.65.78l1.6,3.1c.65,1.24,1.9,3.49,3.71,6.7l.09.16,8.72-14.7-3.66-4.16a12.37,12.37,0,0,1-1.18,2.88A11.12,11.12,0,0,1,120.77,29.81Z"/><path class="cls-2" d="M123.18,51.14l.58,1.12-1.26,0-4.79-.06h-1.56l-.87,1.48L129,78l27.67.32,0,0a1,1,0,0,1,.29-.1L171.11,54.3,157.43,30l-27.92-.32-7.12,12-2.29,3.87,1.63,2.88C121.89,48.69,122.38,49.6,123.18,51.14Z"/><path class="cls-2" d="M86.37,46.37l3.58.8c.4-4.84.73-10.23,1-16.1.22-5.67.36-10.88.41-15.54l-7.53,3.25Z"/><path class="cls-2" d="M104,10.06c1.42,0,2.89-.07,4.42-.07,1,0,1.92,0,2.82.08l-2-2.27Z"/><path class="cls-2" d="M112.53,52.24l.88.2.13-.22-.86,0Z"/><path class="cls-2" d="M106.61,39.62,103,32.39c-.35-.67-.85-1.67-1.5-3.05L100.91,28l1.42.26a20.12,20.12,0,0,0,3.51.34,12,12,0,0,0,4.4-.78,5.88,5.88,0,0,0,2.89-2.28,6.06,6.06,0,0,0,1-3.39,4.79,4.79,0,0,0-.42-2,3.55,3.55,0,0,0-1.38-1.49,5.74,5.74,0,0,0-2.46-.84,23.21,23.21,0,0,0-3.11-.21l-2.43,0c-.87,0-1.9,0-3.11,0l-.5,11.52-.51,20.28,11.91,2.67-3.46-8.29C108.11,42.69,107.42,41.26,106.61,39.62Z"/><polygon class="cls-2" points="215.23 29.47 201.55 5.13 173.63 4.81 159.4 28.83 173.08 53.17 201 53.48 208.12 41.48 215.23 29.47"/><polygon class="cls-2" points="215.22 33.86 210.03 42.61 202.92 54.62 216.6 78.96 244.52 79.28 258.75 55.26 246.92 34.22 215.22 33.86"/><polygon class="cls-2" points="245.07 30.92 217.15 30.61 216.54 31.64 245.66 31.97 245.07 30.92"/><path class="cls-3" d="M104,10.06l5.24-2.26,2,2.27c1.15.06,2.23.15,3.23.29l-4.09-4.64a1.11,1.11,0,0,0-1.28-.29l-11,4.74c1.71,0,3.4,0,5-.09Z"/><path class="cls-4" d="M86.37,46.37,83.79,18.78l7.53-3.25c0-.83,0-1.65,0-2.44l-9.19,4a1.13,1.13,0,0,0-.67,1.13l2.69,28.71L65,67.92,37.32,61.71h-.47l-.11,0-.09,0-.11,0-.09,0-.08.07-.09.07,0,0L16.47,83.52a1.12,1.12,0,0,0,.06,1.58,1.17,1.17,0,0,0,.76.29,1.11,1.11,0,0,0,.82-.36L37.46,64l26.89,6L72.92,97.5a1.13,1.13,0,0,0,1.07.78,1.26,1.26,0,0,0,.33,0,1.11,1.11,0,0,0,.73-1.4L66.57,69.66a1.45,1.45,0,0,0,.09-.22v0l.7-.76,8.46,27.1a1.13,1.13,0,0,0,1.07.78,1.26,1.26,0,0,0,.33-.05,1.11,1.11,0,0,0,.73-1.4l-8.7-27.88a1.07,1.07,0,0,0-.22-.39l16.7-18.31,4,.9c.07-.73.14-1.48.2-2.24Z"/><path class="cls-5" d="M289.24,56.38l-28.37-.32.13-.22a1.1,1.1,0,0,0,0-1.11l-.11-.21,28.35.33h0a1.12,1.12,0,0,0,0-2.24l-29.21-.33h0a1.22,1.22,0,0,0-.38.07l-13-23.08a1.11,1.11,0,0,0-1-.57l-28.56-.33-14-24.89a1.11,1.11,0,0,0-1-.57L173,2.57a1.1,1.1,0,0,0-1,.55L157.45,27.73l-28-.31-5.17-5.88a13.21,13.21,0,0,1-.38,2.77l0,.13,3.66,4.16-8.72,14.7,1.28,2.23,2.29-3.87,7.12-12,27.92.32L171.11,54.3,157,78.19a1,1,0,0,0-.29.1l0,0L129,78,115.28,53.67l.87-1.48-2.61,0-.13.22-.88-.2h-.36l0-.1-11.91-2.67,0,2.27,11.64,2.61L93.28,74.69A1.11,1.11,0,0,0,92.71,76l8.71,27.88a1.12,1.12,0,0,0,1.07.79,1.26,1.26,0,0,0,.33-.05,1.11,1.11,0,0,0,.73-1.4L95.06,76.05l1.22-1.33,8.35,26.75a1.11,1.11,0,0,0,1.07.78,1,1,0,0,0,.33,0,1.11,1.11,0,0,0,.73-1.4L98.05,72.93s0-.08,0-.11l15.75-17.29,13.57,24.13a1.15,1.15,0,0,0,1,.57l28.36.32,13.9,24.72a1.12,1.12,0,0,0,1,.57,1.06,1.06,0,0,0,.54-.14,1.12,1.12,0,0,0,.43-1.52L158.69,79.63,173.06,55.4l27.91.32,14,24.89a1.11,1.11,0,0,0,1,.57l29.21.34h0a1.12,1.12,0,0,0,1-.55L259.6,58.2a1.11,1.11,0,0,0,.41.08l29.2.33h0a1.12,1.12,0,0,0,0-2.23ZM217.15,30.6l27.92.32.59,1-29.12-.33ZM173.08,53.17,159.4,28.83l14.23-24,27.92.32,13.68,24.34-7.11,12-7.12,12Zm71.44,26.11L216.6,79,202.92,54.62l7.12-12,5.19-8.75,31.69.36,11.83,21Z"/></g><g id="Layer_13" data-name="Layer 13"><path class="cls-1" d="M117.61,43.94c-1.81-3.23-3.07-5.49-3.73-6.75l-2.3-4.48.59-.16c1.46-.4,2.64-.73,3.49-1a11.36,11.36,0,0,0,2.25-.95,10.13,10.13,0,0,0,2-1.51,9.64,9.64,0,0,0,1.72-2.2,10.68,10.68,0,0,0,1.09-2.71,12.06,12.06,0,0,0,.37-3,9.53,9.53,0,0,0-1-4.42,8.59,8.59,0,0,0-3-3.2,11.12,11.12,0,0,0-4.63-1.71,44.38,44.38,0,0,0-6.1-.38c-1.81,0-3.57,0-5.23.09s-3.38.09-5.09.09h0c-1.49,0-3.31,0-5.47,0,0,5.66-.16,12.3-.45,19.75s-.72,14.1-1.29,19.85l3.94,0h0l4.13.06.55-21.83L100,16.61h.48c1.5,0,2.77,0,3.8,0l2.45,0h0a25.92,25.92,0,0,1,3.28.21,7.23,7.23,0,0,1,3,1,4.75,4.75,0,0,1,1.84,2,6,6,0,0,1,.54,2.53,7.27,7.27,0,0,1-1.22,4.06,7.14,7.14,0,0,1-3.48,2.77,13.13,13.13,0,0,1-4.86.87h0a19.93,19.93,0,0,1-2.77-.21c.44.92.8,1.64,1.07,2.15l3.6,7.25c.81,1.65,1.51,3.08,2.08,4.29L113,51.16q3.34-.06,4.71-.06h0l4,0c-.56-1.07-.9-1.72-1-1.95Z"/><path class="cls-1" d="M77.11,29.77c.13-6.68.33-12.87.6-18.43-2.42,0-4.21.05-5.36.05h0c-1.75,0-3.73,0-5.93-.05-.44,1.42-.76,2.42-1,3S65,15.54,64.84,16L59.05,30.22l-4.52,12.4v0l-2.67-10c-.83-3.1-1.78-6.29-2.83-9.5-.71-2.11-1.31-3.94-1.76-5.42s-.78-2.59-.94-3.28-.36-1.63-.64-3c-2.54,0-4.31.05-5.31.05h0c-1.24,0-3.14,0-5.73-.05L34,21.14,32,44.78,31.28,51l3.32-.05h0l3.32.05c0-1.54.05-2.73.09-3.56l1.16-18.46c.2-2.85.35-4.87.45-6.08l.69-6.79v0L41,19c.3,1.27.49,2.09.58,2.45s.22.83.39,1.39l1.85,6.07C44.5,31,44.92,32.34,45.1,33l5,18c1.71,0,3-.05,3.82-.05h0l3.61.05,1.15-3.2L70.6,16.31v0l.07,5.05c0,2.4,0,4.88-.09,7.4l-.5,17.71c0,1.21-.11,2.72-.21,4.48,1.45,0,2.64-.05,3.56-.05h0L77,51c0-2.25,0-4.15,0-5.68C76.9,41.89,77,36.67,77.11,29.77Z"/></g><g id="Layer_14" data-name="Layer 14"><path class="cls-6" d="M306.25,54.32a7.09,7.09,0,1,0-6.89,8.86,7.25,7.25,0,0,0,1.78-.23,7.09,7.09,0,0,0,5.11-8.63Zm-2.69,4.24a4.86,4.86,0,1,1-8.37-5,4.86,4.86,0,0,1,3-2.24,5,5,0,0,1,1.21-.15,4.87,4.87,0,0,1,4.18,7.35Z"/><path class="cls-7" d="M179.94,107.61A7.09,7.09,0,1,0,183.2,112,7,7,0,0,0,179.94,107.61Zm.57,8.58a4.86,4.86,0,0,1-6.67,1.71,4.87,4.87,0,0,1,1.28-8.9,4.57,4.57,0,0,1,1.21-.16,4.75,4.75,0,0,1,2.47.69,4.85,4.85,0,0,1,1.71,6.66Z"/><path class="cls-8" d="M112.36,105.58a7.1,7.1,0,1,0,2.48,9.73A7.08,7.08,0,0,0,112.36,105.58Zm.57,8.59a4.87,4.87,0,1,1-8.38-5,4.81,4.81,0,0,1,3-2.23,4.65,4.65,0,0,1,1.22-.16,4.87,4.87,0,0,1,4.18,7.35Z"/><path class="cls-9" d="M82.54,100.32a7.1,7.1,0,1,0,3.26,4.35A7.1,7.1,0,0,0,82.54,100.32Zm.57,8.59a4.86,4.86,0,1,1-4.18-7.35,4.87,4.87,0,0,1,4.18,7.35Z"/><path class="cls-10" d="M14.23,85.14a7.1,7.1,0,1,0-3.63,13.2,7.15,7.15,0,0,0,1.77-.22,7.09,7.09,0,0,0,1.86-13Zm.57,8.58a4.86,4.86,0,1,1-5.39-7.19,5,5,0,0,1,1.21-.15,4.86,4.86,0,0,1,4.18,7.34Z"/></g></svg>