<svg id="Layer_10" data-name="Layer 10" xmlns="http://www.w3.org/2000/svg" xmlns:xlink="http://www.w3.org/1999/xlink" viewBox="0 0 340.66 149.53"><defs><style>.cls-1{fill:#fff;}.cls-2{fill:url(#New_Gradient_Swatch_copy);}.cls-3{fill:url(#New_Gradient_Swatch_copy-2);}.cls-4{fill:url(#New_Gradient_Swatch_copy-3);}.cls-5{fill:url(#New_Gradient_Swatch_copy-4);}.cls-6{fill:url(#New_Gradient_Swatch_copy-5);}.cls-7{fill:url(#New_Gradient_Swatch_copy-6);}.cls-8{fill:none;stroke-width:0.75px;}.cls-8,.cls-9{stroke:#253570;stroke-miterlimit:10;}.cls-9{fill:#253570;}</style><linearGradient id="New_Gradient_Swatch_copy" x1="206.74" y1="13.09" x2="124.4" y2="155.7" gradientUnits="userSpaceOnUse"><stop offset="0.02" stop-color="#297cc1"/><stop offset="0.17" stop-color="#3bb6ad"/><stop offset="0.19" stop-color="#3fb7ac"/><stop offset="0.4" stop-color="#7ec89e"/><stop offset="0.6" stop-color="#afd593"/><stop offset="0.77" stop-color="#d3de8b"/><stop offset="0.91" stop-color="#e9e486"/><stop offset="1" stop-color="#f1e684"/></linearGradient><linearGradient id="New_Gradient_Swatch_copy-2" x1="314.68" y1="64.86" x2="307.58" y2="77.16" xlink:href="#New_Gradient_Swatch_copy"/><linearGradient id="New_Gradient_Swatch_copy-3" x1="191.62" y1="122.5" x2="184.53" y2="134.79" xlink:href="#New_Gradient_Swatch_copy"/><linearGradient id="New_Gradient_Swatch_copy-4" x1="124.04" y1="120.48" x2="116.94" y2="132.77" xlink:href="#New_Gradient_Swatch_copy"/><linearGradient id="New_Gradient_Swatch_copy-5" x1="94.22" y1="115.21" x2="87.12" y2="127.51" xlink:href="#New_Gradient_Swatch_copy"/><linearGradient id="New_Gradient_Swatch_copy-6" x1="25.91" y1="100.03" x2="18.81" y2="112.32" xlink:href="#New_Gradient_Swatch_copy"/></defs><rect class="cls-1" x="5.1" y="12.8" width="319.35" height="127.64" rx="61.69"/><path class="cls-2" d="M300.76,69.78a1.12,1.12,0,0,0,0-2.23l-29.21-.34h0a1,1,0,0,0-.39.08l-13-23.09a1.11,1.11,0,0,0-1-.57l-28.56-.32-14-24.9a1.09,1.09,0,0,0-.95-.57l-29.21-.33a1.09,1.09,0,0,0-1,.54L169,42.67l-28-.32-19.09-21.7a1.11,1.11,0,0,0-1.28-.29L93.66,32A1.14,1.14,0,0,0,93,33.11l2.69,28.71-19.17,21L48.82,76.64h-.37l-.11,0-.1,0-.1,0-.1,0-.09,0-.08.07-.09.08,0,0L28,98.45A1.11,1.11,0,0,0,28,100a1.07,1.07,0,0,0,.75.29,1.11,1.11,0,0,0,.82-.36L49,79l26.89,6,8.57,27.44a1.11,1.11,0,0,0,1.06.78,1,1,0,0,0,.34,0,1.12,1.12,0,0,0,.73-1.4L78.06,84.6a1.15,1.15,0,0,0,.1-.23h0l.7-.77,8.46,27.1a1.11,1.11,0,0,0,1.07.78,1,1,0,0,0,.33,0,1.12,1.12,0,0,0,.73-1.4L80.74,82.14a1.09,1.09,0,0,0-.21-.38L97.22,63.44,123.3,69.3,104.78,89.62a1.11,1.11,0,0,0-.57,1.33l8.71,27.88a1.12,1.12,0,0,0,1.06.78,1.4,1.4,0,0,0,.34,0,1.13,1.13,0,0,0,.73-1.4L106.56,91l1.21-1.33,8.36,26.75a1.12,1.12,0,0,0,1.06.79,1.33,1.33,0,0,0,.34,0,1.13,1.13,0,0,0,.73-1.4l-8.71-27.88a.54.54,0,0,0,0-.11l15.76-17.29,13.57,24.13a1.11,1.11,0,0,0,1,.57l28.36.32,13.9,24.73a1.11,1.11,0,0,0,1,.57,1.08,1.08,0,0,0,.55-.15,1.1,1.1,0,0,0,.42-1.52l-13.8-24.55,14.36-24.23,27.92.32,14,24.9a1.14,1.14,0,0,0,1,.57l29.2.33h0a1.11,1.11,0,0,0,1-.55l13.5-22.77a1.06,1.06,0,0,0,.4.08l29.21.34h0a1.12,1.12,0,0,0,0-2.23L272.37,71l.13-.21a1.15,1.15,0,0,0,0-1.12l-.12-.2,28.36.32ZM257.15,46.9,228,46.57l.62-1,27.92.32Zm-72-27.15,27.92.31L226.73,44.4l-7.12,12-7.12,12-27.91-.32L170.89,43.76Zm-64.4,3L139,43.53,128.61,61.12l-3.7,6.25-27-6.07L95.29,33.71Zm47.72,70.39a1,1,0,0,0-.29.11l0,0-27.67-.32L126.77,68.6l7.12-12,7.12-12,27.91.32,13.69,24.33ZM256,94.21l-27.91-.32L214.41,69.55l7.12-12,5.19-8.76,31.7.36,11.83,21Z"/><path class="cls-3" d="M318,69.25a7.1,7.1,0,1,0-6.89,8.86,7.23,7.23,0,0,0,1.78-.22A7.11,7.11,0,0,0,318,69.25Zm-2.69,4.24a4.86,4.86,0,1,1-8.37-5,4.81,4.81,0,0,1,3-2.23,4.59,4.59,0,0,1,1.22-.16,4.87,4.87,0,0,1,4.17,7.35Z"/><path class="cls-4" d="M191.69,122.54a7.1,7.1,0,1,0-3.63,13.21,7.17,7.17,0,0,0,6.12-3.49,7.09,7.09,0,0,0-2.49-9.72Zm.57,8.59a4.87,4.87,0,1,1-5.39-7.2,5,5,0,0,1,1.21-.15,4.9,4.9,0,0,1,2.48.68,4.87,4.87,0,0,1,1.7,6.67Z"/><path class="cls-5" d="M124.11,120.52a7.11,7.11,0,0,0-9.73,2.48,7.1,7.1,0,1,0,9.73-2.48Zm.57,8.58a4.87,4.87,0,1,1-5.4-7.19,5.11,5.11,0,0,1,1.22-.16,4.88,4.88,0,0,1,4.18,7.35Z"/><path class="cls-6" d="M94.29,115.25a7.1,7.1,0,1,0,3.26,4.35A7.1,7.1,0,0,0,94.29,115.25Zm.57,8.59a4.86,4.86,0,1,1-4.18-7.35,4.87,4.87,0,0,1,4.18,7.35Z"/><path class="cls-7" d="M26,100.07a7.1,7.1,0,1,0-3.63,13.21,7.17,7.17,0,0,0,1.77-.23,7.1,7.1,0,0,0,1.86-13Zm.57,8.59a4.86,4.86,0,1,1-5.39-7.2,5,5,0,0,1,1.21-.15,4.87,4.87,0,0,1,4.18,7.35Z"/><path class="cls-8" d="M47.86,65.31c-.15.72-.31,1.63-.47,2.74a27.2,27.2,0,0,1-3.25.63,23,23,0,0,1-2.74.17A15.24,15.24,0,0,1,37,68.26a7.57,7.57,0,0,1-3.33-2,8.61,8.61,0,0,1-2-3.33,12.92,12.92,0,0,1-.61-4,13.16,13.16,0,0,1,1.12-5.41,8.76,8.76,0,0,1,3.35-3.91,10.37,10.37,0,0,1,5.67-1.43,11.24,11.24,0,0,1,3.4.52,6.81,6.81,0,0,1,2.7,1.57A7.44,7.44,0,0,1,49,52.88a9.58,9.58,0,0,1,.58,3.39,7.76,7.76,0,0,1-.12,1.37H34.54c0,.71-.08,1.26-.08,1.64a8.46,8.46,0,0,0,.86,3.78,5.83,5.83,0,0,0,2.54,2.61,8.07,8.07,0,0,0,3.87.89A19.46,19.46,0,0,0,47.86,65.31ZM34.7,56H46.34a11,11,0,0,0-.16-1.92,5.24,5.24,0,0,0-.51-1.41,3.86,3.86,0,0,0-1-1.27,4.2,4.2,0,0,0-1.52-.82,6.34,6.34,0,0,0-1.93-.29,7.39,7.39,0,0,0-2.12.31,6.54,6.54,0,0,0-1.78.86A5.65,5.65,0,0,0,36,52.76a5.88,5.88,0,0,0-.8,1.42A12.82,12.82,0,0,0,34.7,56Z"/><path class="cls-9" d="M57.25,60.31l.42-3.62,1.22-14.55.6-8.49,2.57,0,2.45,0,.45,1.7c.13.45.29,1,.49,1.6s.53,1.63,1,3.06L68.86,47l3,9.29L75.74,47l4.42-10.16c.16-.36.31-.75.46-1.16l.72-2,2.63,0,2.5,0L86.22,43l-.1,6.12c0,.57,0,1.14,0,1.72l0,4.47v2.52c0,.28,0,1.12,0,2.52-.86,0-1.43,0-1.72,0s-1,0-1.78,0l.12-2.48.29-14.07q.06-2.35.06-5.25l0-1.6L74.54,57.48l-1.13,2.83c-.85,0-1.44,0-1.78,0s-1,0-1.88,0l-2.32-7.37L65,45.7l-2.38-7L62.13,37l-.23,2.28-1.2,16.8c0,.56-.05,1.12-.07,1.68s0,1.4-.07,2.52l-1.63,0Z"/><path class="cls-9" d="M107.61,60.31l.38-5.26.45-9.7.2-8.17c0-1.65,0-2.83,0-3.53,1.56,0,2.85,0,3.88,0s1.87,0,2.94,0,2,0,2.65,0a19.73,19.73,0,0,1,3.31.25A6,6,0,0,1,124.14,35a5.68,5.68,0,0,1,1.74,2.11,6.43,6.43,0,0,1,.55,2.73,7.94,7.94,0,0,1-.44,2.71,7.27,7.27,0,0,1-1.28,2.27,7,7,0,0,1-2,1.66,9.05,9.05,0,0,1-2.24.8c-.6.13-1.42.25-2.46.37l3.44,5.49L125,58.61c.25.38.6.94,1.07,1.7-1,0-1.68,0-2,0s-1.06,0-2.08,0l-1.41-2.68-.86-1.54c-.29-.51-.6-1.06-.94-1.64l-4.42-7.21q-.28-.43-.9-1.5a15.14,15.14,0,0,0,2.65.27,9.39,9.39,0,0,0,3.55-.64,5.11,5.11,0,0,0,2.46-2,5.46,5.46,0,0,0,.87-3,4.76,4.76,0,0,0-.28-1.67,3,3,0,0,0-.87-1.3,3.89,3.89,0,0,0-1.17-.76,5.93,5.93,0,0,0-1.48-.36,16.87,16.87,0,0,0-1.93-.11l-2.77,0c-1.2,0-2,0-2.28,0q-.61,13.13-.74,24.14l-1.92,0Z"/><path class="cls-8" d="M146.67,62.28c.12-.57.24-1.42.37-2.54a35.5,35.5,0,0,1,4.07-.83,26.22,26.22,0,0,1,3.37-.22,15.73,15.73,0,0,1,3.3.32,6.61,6.61,0,0,1,2.54,1,3.54,3.54,0,0,1,1.35,1.66,6.07,6.07,0,0,1,.33,2c0,.89-.06,2.4-.2,4.52s-.24,4.07-.31,5.87-.11,3.4-.11,4.8c-.7,0-1.27,0-1.72,0s-1,0-1.78,0l.42-5.33.29-6.31a12.57,12.57,0,0,1-1,.74,5.06,5.06,0,0,1-.77.4,9.48,9.48,0,0,1-1,.35c-.35.12-1,.31-2,.58s-1.7.48-2.12.63a12.1,12.1,0,0,0-2.13.86,6.09,6.09,0,0,0-1.31.93,3.13,3.13,0,0,0-.74,1,3.43,3.43,0,0,0-.25,1.31,2.87,2.87,0,0,0,.62,1.83A3.32,3.32,0,0,0,149.47,77a7.64,7.64,0,0,0,2.28.3,14.86,14.86,0,0,0,1.72-.11,15.66,15.66,0,0,0,2.4-.59,19.94,19.94,0,0,0-.62,2.32,20.73,20.73,0,0,1-2.33.34c-.6,0-1.16.07-1.7.07a11.4,11.4,0,0,1-4.18-.62,4.51,4.51,0,0,1-2.24-1.91,5.39,5.39,0,0,1-.75-2.78,4.67,4.67,0,0,1,.27-1.62,4.83,4.83,0,0,1,.71-1.35,6,6,0,0,1,1.28-1.21,8.9,8.9,0,0,1,1.74-1c.6-.26,1.31-.51,2.12-.77s2.1-.59,3.89-1c.57-.13,1.06-.27,1.46-.4l1.08-.4a4.27,4.27,0,0,0,.82-.46,3.59,3.59,0,0,0,.64-.65,2.58,2.58,0,0,0,.43-.77,2.38,2.38,0,0,0,.14-.78A2.32,2.32,0,0,0,158,62a3.31,3.31,0,0,0-1.63-1,9.2,9.2,0,0,0-2.37-.27,18.07,18.07,0,0,0-2.61.2,18.75,18.75,0,0,0-2.31.49C148.44,61.62,147.64,61.9,146.67,62.28Z"/><path class="cls-8" d="M197.4,56.42q.39-6,.76-14.25.26-6,.37-12.41l1.82,0c.38,0,1,0,1.74,0l-.6,11.47-.43,11.6L201,56.42l-1.72,0Z"/><path class="cls-8" d="M248.72,82.57l-1.6,0h-1.7l.23-4.21A17.47,17.47,0,0,1,244.58,80a7.47,7.47,0,0,1-2.49,2.07,8.05,8.05,0,0,1-1.81.65,9,9,0,0,1-2.11.23,9.08,9.08,0,0,1-3.54-.68,7.89,7.89,0,0,1-2.81-2,7.8,7.8,0,0,1-1.66-3,12.15,12.15,0,0,1-.5-3.53,13,13,0,0,1,1-4.84,10.32,10.32,0,0,1,2.71-3.94,9.74,9.74,0,0,1,4-2.15A17.42,17.42,0,0,1,242,62.3a25.46,25.46,0,0,1,4.08.39c.07-1.42.1-2.6.1-3.53,0-1.36,0-2.45,0-3.29l1.78,0c.44,0,1,0,1.78,0l-.57,11-.39,12.63ZM245.9,65.15a12.91,12.91,0,0,0-2-.45,15,15,0,0,0-1.61-.1,11.8,11.8,0,0,0-3.58.54,7.72,7.72,0,0,0-3,1.77,8.07,8.07,0,0,0-2,3.12,10.63,10.63,0,0,0-.7,3.72,8.6,8.6,0,0,0,.66,3.38,5.31,5.31,0,0,0,2.06,2.47,5.93,5.93,0,0,0,3.25.88,6.5,6.5,0,0,0,2-.3,5.48,5.48,0,0,0,1.67-.89,6.7,6.7,0,0,0,1.42-1.58,8.53,8.53,0,0,0,1-2.3,16.24,16.24,0,0,0,.49-3.11q.08-1,.18-3.69Z"/></svg>