<svg id="Layer_10" data-name="Layer 10" xmlns="http://www.w3.org/2000/svg" xmlns:xlink="http://www.w3.org/1999/xlink" viewBox="0 0 308.7 123.39"><defs><style>.cls-1{fill:url(#linear-gradient);}.cls-2{fill:url(#linear-gradient-2);}.cls-3{fill:url(#linear-gradient-3);}.cls-4{fill:url(#linear-gradient-4);}.cls-5{fill:url(#linear-gradient-5);}.cls-6{fill:url(#linear-gradient-6);}.cls-7{fill:#262262;stroke:#262262;}.cls-7,.cls-8{stroke-miterlimit:10;}.cls-8{fill:#fff;stroke:#fff;stroke-width:0.25px;}</style><linearGradient id="linear-gradient" x1="15.92" y1="54.21" x2="290.13" y2="54.21" gradientUnits="userSpaceOnUse"><stop offset="0" stop-color="#f9ed32"/><stop offset="0.26" stop-color="#d5e572"/><stop offset="0.51" stop-color="#b5dfa8"/><stop offset="0.72" stop-color="#9fdad0"/><stop offset="0.9" stop-color="#91d7e8"/><stop offset="1" stop-color="#8cd6f1"/></linearGradient><linearGradient id="linear-gradient-2" x1="292.28" y1="56.08" x2="306.48" y2="56.08" xlink:href="#linear-gradient"/><linearGradient id="linear-gradient-3" x1="169.22" y1="113.71" x2="183.42" y2="113.71" xlink:href="#linear-gradient"/><linearGradient id="linear-gradient-4" x1="101.64" y1="111.69" x2="115.84" y2="111.69" xlink:href="#linear-gradient"/><linearGradient id="linear-gradient-5" x1="71.83" y1="106.43" x2="86.02" y2="106.43" xlink:href="#linear-gradient"/><linearGradient id="linear-gradient-6" x1="3.51" y1="91.24" x2="17.71" y2="91.24" xlink:href="#linear-gradient"/></defs><path class="cls-1" d="M289,54.85a1.12,1.12,0,0,0,0-2.24l-29.2-.33h0a1.23,1.23,0,0,0-.39.07l-13-23.08a1.09,1.09,0,0,0-1-.57l-28.56-.33-14-24.89a1.09,1.09,0,0,0-1-.57l-29.2-.34a1.1,1.1,0,0,0-1,.55L157.2,27.73l-28-.31L110.12,5.72a1.11,1.11,0,0,0-1.28-.29L81.91,17.05a1.1,1.1,0,0,0-.67,1.13l2.69,28.71-19.17,21L37.07,61.71h-.48l-.1,0-.1,0-.1,0-.09,0a.27.27,0,0,0-.08.07L36,62l0,0L16.21,83.52A1.11,1.11,0,1,0,17.85,85L37.21,64l26.89,6L72.67,97.5a1.12,1.12,0,0,0,1.06.78,1.33,1.33,0,0,0,.34,0,1.12,1.12,0,0,0,.73-1.4L66.31,69.66a.88.88,0,0,0,.1-.22v0l.7-.76,8.46,27.1a1.12,1.12,0,0,0,1.06.78,1.33,1.33,0,0,0,.34-.05,1.12,1.12,0,0,0,.73-1.4L69,67.21a1,1,0,0,0-.21-.39L85.47,48.51l26.08,5.85L93,74.69A1.1,1.1,0,0,0,92.46,76l8.71,27.88a1.12,1.12,0,0,0,1.06.79,1.26,1.26,0,0,0,.33-.05,1.13,1.13,0,0,0,.74-1.4L94.81,76.05,96,74.72l8.36,26.75a1.11,1.11,0,0,0,1.06.78,1,1,0,0,0,.34,0,1.12,1.12,0,0,0,.73-1.4L97.8,72.93a.37.37,0,0,0,0-.11l15.76-17.29,13.57,24.13a1.14,1.14,0,0,0,1,.57l28.36.32,13.9,24.72a1.09,1.09,0,0,0,1,.57,1.07,1.07,0,0,0,.55-.14,1.1,1.1,0,0,0,.42-1.52l-13.8-24.55L172.8,55.4l27.92.32,14,24.89a1.09,1.09,0,0,0,1,.57l29.2.34h0a1.11,1.11,0,0,0,1-.55l13.5-22.77a1.06,1.06,0,0,0,.4.08l29.21.33h0a1.12,1.12,0,0,0,0-2.23l-28.36-.32.13-.22a1.13,1.13,0,0,0,0-1.11l-.12-.21,28.36.33ZM245.4,32l-29.12-.33.62-1,27.91.32Zm-72-27.16,27.91.32L215,29.47l-7.12,12-7.12,12-27.91-.31L159.14,28.83ZM109,7.8l18.3,20.8L116.86,46.19l-3.7,6.25-27-6.07L83.54,18.78ZM156.7,78.19a1,1,0,0,0-.29.1l0,0L128.7,78,115,53.67l7.12-12,7.12-12,27.91.32L170.86,54.3Zm87.56,1.09L216.35,79,202.66,54.62l7.12-12L215,33.86l31.7.36,11.83,21Z"/><path class="cls-2" d="M306.25,54.32a7.09,7.09,0,1,0-6.89,8.86,7.25,7.25,0,0,0,1.78-.23,7.09,7.09,0,0,0,5.11-8.63Zm-2.69,4.24a4.86,4.86,0,1,1-8.37-5,4.86,4.86,0,0,1,3-2.24,5,5,0,0,1,1.21-.15,4.87,4.87,0,0,1,4.18,7.35Z"/><path class="cls-3" d="M179.94,107.61A7.09,7.09,0,1,0,183.2,112,7,7,0,0,0,179.94,107.61Zm.57,8.58a4.86,4.86,0,0,1-6.67,1.71,4.87,4.87,0,0,1,1.28-8.9,4.57,4.57,0,0,1,1.21-.16,4.75,4.75,0,0,1,2.47.69,4.85,4.85,0,0,1,1.71,6.66Z"/><path class="cls-4" d="M112.36,105.58a7.1,7.1,0,1,0,2.48,9.73A7.08,7.08,0,0,0,112.36,105.58Zm.57,8.59a4.87,4.87,0,1,1-8.38-5,4.81,4.81,0,0,1,3-2.23,4.65,4.65,0,0,1,1.22-.16,4.87,4.87,0,0,1,4.18,7.35Z"/><path class="cls-5" d="M82.54,100.32a7.1,7.1,0,1,0,3.26,4.35A7.1,7.1,0,0,0,82.54,100.32Zm.57,8.59a4.86,4.86,0,1,1-4.18-7.35,4.87,4.87,0,0,1,4.18,7.35Z"/><path class="cls-6" d="M14.23,85.14a7.1,7.1,0,1,0-3.63,13.2,7.15,7.15,0,0,0,1.77-.22,7.09,7.09,0,0,0,1.86-13Zm.57,8.58a4.86,4.86,0,1,1-5.39-7.19,5,5,0,0,1,1.21-.15,4.86,4.86,0,0,1,4.18,7.34Z"/><path class="cls-7" d="M45.5,45.37l.42-3.61,1.22-14.55.59-8.5c1,0,1.85,0,2.58,0s1.49,0,2.45,0l.45,1.7c.13.46.29,1,.49,1.61s.53,1.63,1,3.06L57.11,32l3,9.29L64,32l4.43-10.16c.16-.37.31-.75.46-1.16s.39-1.07.71-2c.85,0,1.73,0,2.64,0,.73,0,1.56,0,2.5,0L74.47,28l-.1,6.11c0,.58,0,1.15,0,1.72l0,4.48v2.51c0,.29,0,1.13,0,2.52l-1.72,0-1.78,0L71,42.89l.29-14.06c0-1.57.06-3.33.06-5.25l0-1.6L62.79,42.54l-1.13,2.83-1.78,0-1.88,0L55.68,38l-2.39-7.24-2.38-7c-.1-.31-.28-.87-.53-1.68l-.23,2.29L49,41.18c0,.55-.05,1.12-.07,1.67s0,1.4-.07,2.52l-1.63,0Z"/><path class="cls-7" d="M95.85,45.37l.39-5.25.45-9.71.2-8.16c0-1.65,0-2.83,0-3.54,1.56,0,2.85,0,3.88,0s1.87,0,2.94,0l2.65,0a19.81,19.81,0,0,1,3.31.25,6,6,0,0,1,2.68,1.16,5.88,5.88,0,0,1,1.74,2.11,6.43,6.43,0,0,1,.55,2.73,7.94,7.94,0,0,1-.44,2.71A7.39,7.39,0,0,1,113,29.91a7.25,7.25,0,0,1-2,1.66,9.21,9.21,0,0,1-2.24.8c-.6.13-1.42.25-2.46.37l3.44,5.49,3.55,5.45,1.07,1.69-2,0-2.08,0-1.41-2.67c-.29-.52-.57-1-.86-1.54s-.6-1.06-.94-1.64l-4.42-7.21c-.19-.29-.49-.79-.9-1.51a14.33,14.33,0,0,0,2.65.28,9.43,9.43,0,0,0,3.55-.65,5.09,5.09,0,0,0,2.46-2,5.46,5.46,0,0,0,.87-3,4.8,4.8,0,0,0-.28-1.67,3.11,3.11,0,0,0-.87-1.3,4.09,4.09,0,0,0-1.17-.76,6.45,6.45,0,0,0-1.48-.35,14.81,14.81,0,0,0-1.93-.12l-2.77,0c-1.2,0-2,0-2.28,0q-.61,13.13-.74,24.14l-1.92,0Z"/><path class="cls-8" d="M36.11,50.38c-.15.72-.31,1.63-.47,2.73a25.56,25.56,0,0,1-3.25.64,23,23,0,0,1-2.74.16,15.25,15.25,0,0,1-4.39-.58,7.57,7.57,0,0,1-3.33-2,8.61,8.61,0,0,1-2-3.33,12.94,12.94,0,0,1-.61-4,13.12,13.12,0,0,1,1.12-5.4,8.76,8.76,0,0,1,3.35-3.91,10.37,10.37,0,0,1,5.67-1.43,10.94,10.94,0,0,1,3.4.52,6.59,6.59,0,0,1,2.69,1.57A7,7,0,0,1,37.22,38a9.29,9.29,0,0,1,.59,3.39,7.56,7.56,0,0,1-.12,1.36H22.79c-.05.72-.08,1.27-.08,1.64a8.4,8.4,0,0,0,.86,3.78,5.81,5.81,0,0,0,2.54,2.62,8.18,8.18,0,0,0,3.87.89A19.46,19.46,0,0,0,36.11,50.38ZM23,41.08H34.59a10.87,10.87,0,0,0-.16-1.91,5.42,5.42,0,0,0-.51-1.42,4,4,0,0,0-1-1.27,4.32,4.32,0,0,0-1.53-.82,6.23,6.23,0,0,0-1.92-.28,7.06,7.06,0,0,0-2.12.31,6.54,6.54,0,0,0-1.78.86,5.65,5.65,0,0,0-1.3,1.28,6.31,6.31,0,0,0-.81,1.42A13.81,13.81,0,0,0,23,41.08Z"/><path class="cls-8" d="M134.92,47.35c.12-.58.24-1.42.37-2.54a35.07,35.07,0,0,1,4.07-.83,26.27,26.27,0,0,1,3.37-.23,15.55,15.55,0,0,1,3.29.33,6.6,6.6,0,0,1,2.55,1,3.5,3.5,0,0,1,1.35,1.66,6.05,6.05,0,0,1,.33,2c0,.9-.07,2.41-.2,4.52s-.24,4.08-.31,5.87-.11,3.4-.11,4.81c-.7,0-1.28,0-1.72,0s-1,0-1.78,0l.42-5.33.29-6.31c-.45.35-.8.6-1,.74a5.67,5.67,0,0,1-.78.4c-.28.12-.6.24-.94.35l-2,.58c-1,.27-1.7.48-2.12.62a13.07,13.07,0,0,0-2.13.86,6.48,6.48,0,0,0-1.31.94,3.13,3.13,0,0,0-.74,1,3.38,3.38,0,0,0-.25,1.3,2.82,2.82,0,0,0,.62,1.84,3.23,3.23,0,0,0,1.57,1.08,7.31,7.31,0,0,0,2.28.31,13,13,0,0,0,1.72-.12,13.6,13.6,0,0,0,2.4-.59A20.83,20.83,0,0,0,143.5,64c-1,.18-1.73.29-2.33.34s-1.16.07-1.7.07a11.13,11.13,0,0,1-4.18-.63,4.44,4.44,0,0,1-2.24-1.9,5.39,5.39,0,0,1-.75-2.78,4.76,4.76,0,0,1,.27-1.63,4.91,4.91,0,0,1,.71-1.34,5.78,5.78,0,0,1,1.28-1.21,8.42,8.42,0,0,1,1.74-1,20.84,20.84,0,0,1,2.12-.77c.81-.26,2.1-.6,3.89-1a13.92,13.92,0,0,0,1.46-.4c.4-.13.76-.27,1.07-.4a3.65,3.65,0,0,0,.83-.46,3.52,3.52,0,0,0,.64-.64,2.83,2.83,0,0,0,.43-.77,2.38,2.38,0,0,0,.14-.78,2.32,2.32,0,0,0-.63-1.64,3.31,3.31,0,0,0-1.63-1,9.2,9.2,0,0,0-2.37-.27,16.75,16.75,0,0,0-2.61.2,18.75,18.75,0,0,0-2.31.49C136.69,46.69,135.88,47,134.92,47.35Z"/><path class="cls-8" d="M185.65,41.49q.39-6,.76-14.26.26-6,.37-12.4l1.82,0,1.74,0-.61,11.47-.42,11.6-.08,3.59c-.77,0-1.34,0-1.72,0Z"/><path class="cls-8" d="M237,67.64c-.77,0-1.3,0-1.6,0h-1.7l.23-4.22a16.3,16.3,0,0,1-1.07,1.69,7.53,7.53,0,0,1-1.07,1.13,7.45,7.45,0,0,1-1.42.94,8.06,8.06,0,0,1-1.81.66,9.54,9.54,0,0,1-2.11.23,9.26,9.26,0,0,1-3.54-.68,7.79,7.79,0,0,1-2.81-2,7.55,7.55,0,0,1-1.66-3,12.2,12.2,0,0,1-.5-3.53,12.84,12.84,0,0,1,1-4.84,10.32,10.32,0,0,1,2.71-3.94,9.88,9.88,0,0,1,4-2.16,17.78,17.78,0,0,1,4.69-.6,25.67,25.67,0,0,1,4.08.39c.06-1.42.1-2.6.1-3.54,0-1.35,0-2.45,0-3.28l1.78,0,1.77,0-.56,11L237,64.61Zm-2.82-17.42a11.84,11.84,0,0,0-2-.45,12.76,12.76,0,0,0-1.61-.1,11.8,11.8,0,0,0-3.58.54A7.72,7.72,0,0,0,224,52a8.07,8.07,0,0,0-2,3.12,10.58,10.58,0,0,0-.7,3.71,8.68,8.68,0,0,0,.66,3.39A5.24,5.24,0,0,0,224,64.66a5.85,5.85,0,0,0,3.25.89,6.5,6.5,0,0,0,2-.3,5.48,5.48,0,0,0,1.67-.89,6.93,6.93,0,0,0,1.42-1.58,8.6,8.6,0,0,0,1-2.31,16.11,16.11,0,0,0,.49-3.1q.08-1,.18-3.69Z"/></svg>