<svg id="Layer_10" data-name="Layer 10" xmlns="http://www.w3.org/2000/svg" xmlns:xlink="http://www.w3.org/1999/xlink" viewBox="0 0 311.57 123.39"><defs><style>.cls-1{fill:url(#linear-gradient);}.cls-2{fill:url(#linear-gradient-2);}.cls-3{fill:url(#linear-gradient-3);}.cls-4{fill:url(#linear-gradient-4);}.cls-5{fill:url(#linear-gradient-5);}.cls-6{fill:url(#linear-gradient-6);}.cls-7{fill:#262262;stroke:#262262;stroke-width:1.4px;}.cls-7,.cls-8{stroke-miterlimit:10;}.cls-8{fill:#fff;stroke:#fff;}</style><linearGradient id="linear-gradient" x1="18.09" y1="54.21" x2="292.3" y2="54.21" gradientUnits="userSpaceOnUse"><stop offset="0" stop-color="#f9ed32"/><stop offset="0.03" stop-color="#f9ee3a"/><stop offset="0.29" stop-color="#fbf47f"/><stop offset="0.53" stop-color="#fdf9b6"/><stop offset="0.74" stop-color="#fefcde"/><stop offset="0.9" stop-color="#fffef6"/><stop offset="1" stop-color="#fff"/></linearGradient><linearGradient id="linear-gradient-2" x1="294.45" y1="56.08" x2="308.65" y2="56.08" xlink:href="#linear-gradient"/><linearGradient id="linear-gradient-3" x1="171.39" y1="113.71" x2="185.6" y2="113.71" xlink:href="#linear-gradient"/><linearGradient id="linear-gradient-4" x1="103.81" y1="111.69" x2="118.01" y2="111.69" xlink:href="#linear-gradient"/><linearGradient id="linear-gradient-5" x1="74" y1="106.43" x2="88.2" y2="106.43" xlink:href="#linear-gradient"/><linearGradient id="linear-gradient-6" x1="5.68" y1="91.24" x2="19.89" y2="91.24" xlink:href="#linear-gradient"/></defs><path class="cls-1" d="M291.18,54.85a1.12,1.12,0,0,0,0-2.24L262,52.28h0a1.17,1.17,0,0,0-.38.07l-13-23.08a1.11,1.11,0,0,0-1-.57l-28.56-.33-14-24.89a1.11,1.11,0,0,0-1-.57l-29.21-.34a1.1,1.1,0,0,0-1,.55L159.37,27.73l-28-.31-19.1-21.7A1.11,1.11,0,0,0,111,5.43L84.08,17.05a1.13,1.13,0,0,0-.67,1.13L86.1,46.89l-19.17,21L39.24,61.71h-.47l-.11,0-.1,0-.1,0-.09,0-.08.07L38.2,62l0,0L18.38,83.52a1.11,1.11,0,0,0,.82,1.87A1.11,1.11,0,0,0,20,85L39.38,64l26.89,6L74.84,97.5a1.13,1.13,0,0,0,1.07.78,1.26,1.26,0,0,0,.33,0,1.11,1.11,0,0,0,.73-1.4L68.49,69.66a1.45,1.45,0,0,0,.09-.22v0l.7-.76,8.46,27.1a1.13,1.13,0,0,0,1.07.78,1.26,1.26,0,0,0,.33-.05,1.11,1.11,0,0,0,.73-1.4L71.16,67.21a1,1,0,0,0-.21-.39L87.64,48.51l26.08,5.85L95.2,74.69A1.11,1.11,0,0,0,94.63,76l8.71,27.88a1.12,1.12,0,0,0,1.06.79,1.33,1.33,0,0,0,.34-.05,1.12,1.12,0,0,0,.73-1.4L97,76.05l1.21-1.33,8.36,26.75a1.11,1.11,0,0,0,1.06.78,1,1,0,0,0,.34,0,1.12,1.12,0,0,0,.73-1.4L100,72.93s0-.08,0-.11l15.75-17.29,13.57,24.13a1.14,1.14,0,0,0,1,.57l28.36.32,13.9,24.72a1.11,1.11,0,0,0,1,.57,1.07,1.07,0,0,0,.55-.14,1.12,1.12,0,0,0,.43-1.52L160.61,79.63,175,55.4l27.92.32,14,24.89a1.09,1.09,0,0,0,1,.57l29.2.34h0a1.12,1.12,0,0,0,1-.55L261.52,58.2a1.1,1.1,0,0,0,.4.08l29.21.33h0a1.12,1.12,0,1,0,0-2.23l-28.36-.32.13-.22a1.1,1.1,0,0,0,0-1.11l-.11-.21,28.35.33ZM247.58,32l-29.12-.33.61-1,27.92.32Zm-72-27.16,27.92.32,13.68,24.34-7.12,12-7.11,12L175,53.17,161.32,28.83Zm-64.4,3,18.31,20.8L119,46.19l-3.7,6.25-27-6.07L85.71,18.78Zm47.72,70.39a1.11,1.11,0,0,0-.29.1l0,0L130.88,78,117.19,53.67l7.12-12,7.12-12,27.92.32L173,54.3Zm87.57,1.09L218.52,79,204.84,54.62l7.11-12,5.19-8.75,31.7.36,11.83,21Z"/><path class="cls-2" d="M308.43,54.32a7.09,7.09,0,1,0-6.89,8.86,7.17,7.17,0,0,0,1.77-.23,7.08,7.08,0,0,0,5.12-8.63Zm-2.69,4.24a4.85,4.85,0,0,1-3,2.23,4.8,4.8,0,0,1-3.68-.53,4.87,4.87,0,0,1,1.27-8.9,5.09,5.09,0,0,1,1.22-.15,4.88,4.88,0,0,1,4.18,7.35Z"/><path class="cls-3" d="M182.11,107.61a7.1,7.1,0,1,0-3.63,13.2,7.1,7.1,0,0,0,6.89-8.86A7,7,0,0,0,182.11,107.61Zm.57,8.58a4.86,4.86,0,1,1-8.37-5,4.81,4.81,0,0,1,3-2.23,4.57,4.57,0,0,1,1.21-.16,4.87,4.87,0,0,1,4.18,7.35Z"/><path class="cls-4" d="M114.53,105.58a7.1,7.1,0,1,0,2.49,9.73A7.08,7.08,0,0,0,114.53,105.58Zm.57,8.59a4.87,4.87,0,1,1-5.39-7.19,4.52,4.52,0,0,1,1.21-.16,4.87,4.87,0,0,1,4.18,7.35Z"/><path class="cls-5" d="M84.71,100.32A7.1,7.1,0,1,0,88,104.67,7,7,0,0,0,84.71,100.32Zm.57,8.59a4.87,4.87,0,1,1,.53-3.69A4.87,4.87,0,0,1,85.28,108.91Z"/><path class="cls-6" d="M16.4,85.14a7.1,7.1,0,1,0-3.63,13.2,7.09,7.09,0,0,0,3.63-13.2ZM17,93.72a4.86,4.86,0,1,1-5.39-7.19,5,5,0,0,1,1.21-.15A4.86,4.86,0,0,1,17,93.72Z"/><path class="cls-7" d="M43,47.19l.51-4.49,1.53-18.08.73-10.56,3.2,0,3.05,0,.56,2.12c.16.56.36,1.23.6,2L54.48,22l3,8.61,3.71,11.55L66,30.59,71.51,18q.28-.67.57-1.44c.18-.51.48-1.33.88-2.47,1.06,0,2.15,0,3.28,0l3.11,0L79,25.64l-.13,7.6c0,.71,0,1.42,0,2.13l0,5.56v3.13c0,.36,0,1.4,0,3.13l-2.14,0c-.5,0-1.24,0-2.21,0l.15-3.08.36-17.47q.07-2.94.08-6.53l0-2L64.53,43.67l-1.41,3.52-2.21,0c-.51,0-1.28,0-2.34,0L55.69,38l-3-9-3-8.69c-.13-.39-.35-1.08-.65-2.09l-.3,2.84L47.33,42c0,.69-.07,1.39-.09,2.08s-.05,1.74-.09,3.13l-2,0Z"/><path class="cls-7" d="M95.88,47.19l.49-6.53.56-12.06.24-10.14c0-2.06,0-3.52,0-4.4,1.94,0,3.55,0,4.83,0,1.1,0,2.31,0,3.65,0s2.43,0,3.29,0a24.73,24.73,0,0,1,4.11.31,7.35,7.35,0,0,1,3.33,1.45,7,7,0,0,1,2.16,2.62,7.94,7.94,0,0,1,.69,3.38,10,10,0,0,1-.55,3.38,8.83,8.83,0,0,1-1.6,2.81A8.63,8.63,0,0,1,114.62,30a10.85,10.85,0,0,1-2.79,1c-.74.16-1.76.31-3,.46l4.27,6.82,4.41,6.77c.31.47.75,1.17,1.34,2.11l-2.52,0-2.58,0L112,43.87,110.88,42l-1.17-2L104.21,31c-.23-.36-.6-1-1.12-1.87a19.44,19.44,0,0,0,3.3.34,11.74,11.74,0,0,0,4.41-.8,6.41,6.41,0,0,0,3.06-2.49,6.84,6.84,0,0,0,1.08-3.75,6.39,6.39,0,0,0-.34-2.08,3.89,3.89,0,0,0-1.08-1.61,5.33,5.33,0,0,0-1.46-.95,7.46,7.46,0,0,0-1.84-.43,18.25,18.25,0,0,0-2.39-.15l-3.45,0c-1.49,0-2.44,0-2.84,0q-.75,16.3-.92,30l-2.38,0Z"/><path class="cls-8" d="M31.92,50.83c-.19.87-.37,2-.56,3.31a34,34,0,0,1-3.94.77,28.4,28.4,0,0,1-3.31.2,18.5,18.5,0,0,1-5.31-.71,9.07,9.07,0,0,1-4-2.47,10.22,10.22,0,0,1-2.41-4,15.44,15.44,0,0,1-.74-4.79A15.77,15.77,0,0,1,13,36.58,10.66,10.66,0,0,1,17,31.84a12.53,12.53,0,0,1,6.86-1.72,13.59,13.59,0,0,1,4.11.62,7.94,7.94,0,0,1,3.26,1.91,8.52,8.52,0,0,1,2,3.15A11.57,11.57,0,0,1,34,39.9a10,10,0,0,1-.14,1.65h-18q-.09,1.31-.09,2a10.13,10.13,0,0,0,1,4.57,7,7,0,0,0,3.07,3.17,9.79,9.79,0,0,0,4.68,1.07A23.32,23.32,0,0,0,31.92,50.83ZM16,39.59H30.08a13.18,13.18,0,0,0-.19-2.32,6.66,6.66,0,0,0-.61-1.71A4.89,4.89,0,0,0,28.06,34a5.18,5.18,0,0,0-1.84-1,7.9,7.9,0,0,0-2.33-.34,8.67,8.67,0,0,0-2.56.38,7.53,7.53,0,0,0-2.15,1,6.84,6.84,0,0,0-1.58,1.55,7.16,7.16,0,0,0-1,1.71A16.89,16.89,0,0,0,16,39.59Z"/><path class="cls-8" d="M135.36,47c.14-.69.29-1.72.45-3.07a41.16,41.16,0,0,1,4.92-1,31.87,31.87,0,0,1,4.08-.27,19.4,19.4,0,0,1,4,.39,8.08,8.08,0,0,1,3.08,1.27,4.24,4.24,0,0,1,1.63,2,7.22,7.22,0,0,1,.4,2.44c0,1.08-.08,2.91-.25,5.46s-.29,4.93-.37,7.1-.13,4.11-.13,5.81c-.85,0-1.54,0-2.08,0s-1.22,0-2.15,0l.5-6.45.36-7.62c-.55.42-1,.72-1.24.89a6.36,6.36,0,0,1-.94.49,11.44,11.44,0,0,1-1.14.42c-.42.14-1.23.37-2.44.7s-2.06.58-2.56.75a15.67,15.67,0,0,0-2.58,1,7.39,7.39,0,0,0-1.58,1.14,3.71,3.71,0,0,0-.9,1.23,4,4,0,0,0-.31,1.58,3.42,3.42,0,0,0,.76,2.22,3.83,3.83,0,0,0,1.9,1.31,9.19,9.19,0,0,0,2.75.37,16.9,16.9,0,0,0,2.08-.14,17.69,17.69,0,0,0,2.9-.71,23.86,23.86,0,0,0-.75,2.81,27.56,27.56,0,0,1-2.81.41c-.73.06-1.41.08-2.06.08a13.64,13.64,0,0,1-5.05-.75,5.51,5.51,0,0,1-2.72-2.31,6.56,6.56,0,0,1-.9-3.36,5.88,5.88,0,0,1,.32-2,6.21,6.21,0,0,1,.87-1.63,7.05,7.05,0,0,1,1.54-1.47,11,11,0,0,1,2.1-1.2,24.71,24.71,0,0,1,2.57-.93c1-.31,2.54-.72,4.7-1.24a17.75,17.75,0,0,0,1.77-.49c.49-.16.92-.33,1.3-.48a4.66,4.66,0,0,0,1-.56,3.6,3.6,0,0,0,.78-.78,3.22,3.22,0,0,0,.52-.93,2.89,2.89,0,0,0,.17-.95,2.81,2.81,0,0,0-.76-2,4,4,0,0,0-2-1.16,11,11,0,0,0-2.87-.33,21.56,21.56,0,0,0-3.16.25,22.55,22.55,0,0,0-2.78.59C137.5,46.16,136.53,46.5,135.36,47Z"/><path class="cls-8" d="M186.68,43.75q.47-7.28.92-17.24.3-7.25.44-15l2.2,0,2.11,0-.73,13.87-.52,14-.1,4.34c-.93,0-1.62,0-2.08,0Z"/><path class="cls-8" d="M241.51,71.48l-1.94,0h-2l.28-5.1a20.15,20.15,0,0,1-1.3,2,8.17,8.17,0,0,1-1.29,1.35,8.74,8.74,0,0,1-1.72,1.15,9.27,9.27,0,0,1-2.19.79,11.64,11.64,0,0,1-6.83-.54,9.37,9.37,0,0,1-3.39-2.36,9.25,9.25,0,0,1-2-3.58,14.74,14.74,0,0,1-.61-4.27,15.59,15.59,0,0,1,1.15-5.85,12.57,12.57,0,0,1,3.27-4.76,11.67,11.67,0,0,1,4.79-2.61,21.26,21.26,0,0,1,5.66-.74,30.35,30.35,0,0,1,4.94.48c.08-1.72.12-3.14.12-4.28,0-1.64,0-3,0-4l2.15,0,2.15,0L242,52.54l-.47,15.28Zm-3.4-21.07a15.24,15.24,0,0,0-2.43-.54,16.16,16.16,0,0,0-1.94-.12,14.52,14.52,0,0,0-4.34.65,9.16,9.16,0,0,0-3.63,2.14,9.66,9.66,0,0,0-2.42,3.78,12.78,12.78,0,0,0-.85,4.49,10.29,10.29,0,0,0,.8,4.09,6.33,6.33,0,0,0,2.49,3A7.13,7.13,0,0,0,229.72,69a7.94,7.94,0,0,0,2.46-.36,6.67,6.67,0,0,0,2-1.08,8.29,8.29,0,0,0,1.71-1.91,9.93,9.93,0,0,0,1.27-2.79,19.16,19.16,0,0,0,.59-3.75c.07-.77.14-2.26.22-4.47Z"/></svg>