<svg id="Layer_10" data-name="Layer 10" xmlns="http://www.w3.org/2000/svg" xmlns:xlink="http://www.w3.org/1999/xlink" viewBox="0 0 323.23 151.66"><defs><style>.cls-1{fill:url(#linear-gradient);}.cls-2{fill:url(#linear-gradient-2);}.cls-3{fill:url(#linear-gradient-3);}.cls-4{fill:url(#linear-gradient-4);}.cls-5{fill:url(#linear-gradient-5);}.cls-6{fill:url(#linear-gradient-6);}.cls-7{fill:#262262;stroke:#262262;stroke-width:1.5px;}.cls-7,.cls-8{stroke-miterlimit:10;}.cls-8{fill:#fff;stroke:#fff;stroke-width:0.75px;}</style><linearGradient id="linear-gradient" x1="26.18" y1="69.14" x2="300.39" y2="69.14" gradientUnits="userSpaceOnUse"><stop offset="0" stop-color="#f9ed32"/><stop offset="0.03" stop-color="#f9ee3a"/><stop offset="0.29" stop-color="#fbf47f"/><stop offset="0.53" stop-color="#fdf9b6"/><stop offset="0.74" stop-color="#fefcde"/><stop offset="0.9" stop-color="#fffef6"/><stop offset="1" stop-color="#fff"/></linearGradient><linearGradient id="linear-gradient-2" x1="302.54" y1="71.01" x2="316.74" y2="71.01" xlink:href="#linear-gradient"/><linearGradient id="linear-gradient-3" x1="179.49" y1="128.64" x2="193.69" y2="128.64" xlink:href="#linear-gradient"/><linearGradient id="linear-gradient-4" x1="111.9" y1="126.62" x2="126.1" y2="126.62" xlink:href="#linear-gradient"/><linearGradient id="linear-gradient-5" x1="82.09" y1="121.36" x2="96.29" y2="121.36" xlink:href="#linear-gradient"/><linearGradient id="linear-gradient-6" x1="13.77" y1="106.18" x2="27.98" y2="106.18" xlink:href="#linear-gradient"/></defs><path class="cls-1" d="M299.28,69.78a1.12,1.12,0,0,0,0-2.23l-29.21-.34h0a1,1,0,0,0-.38.08l-13-23.09a1.13,1.13,0,0,0-1-.57l-28.56-.32-14-24.9a1.11,1.11,0,0,0-1-.57L183,17.51a1.09,1.09,0,0,0-1,.54L167.46,42.67l-28-.32-19.1-21.7a1.11,1.11,0,0,0-1.28-.29L92.17,32a1.14,1.14,0,0,0-.67,1.13l2.69,28.71L75,82.86,47.33,76.64H47l-.1,0a.45.45,0,0,0-.11,0l-.1,0-.1,0-.09,0-.08.07-.09.08,0,0L26.47,98.45a1.13,1.13,0,0,0,.07,1.58,1.11,1.11,0,0,0,1.57-.07L47.47,79l26.89,6,8.57,27.44a1.11,1.11,0,0,0,1.07.78,1,1,0,0,0,.33,0,1.11,1.11,0,0,0,.73-1.4L76.58,84.6a2.18,2.18,0,0,0,.09-.23h0l.7-.77,8.46,27.1a1.11,1.11,0,0,0,1.07.78,1,1,0,0,0,.33,0A1.11,1.11,0,0,0,88,110L79.25,82.14a1.09,1.09,0,0,0-.21-.38L95.73,63.44l26.09,5.86L103.29,89.62a1.13,1.13,0,0,0-.57,1.33l8.71,27.88a1.12,1.12,0,0,0,1.06.78,1.33,1.33,0,0,0,.34,0,1.12,1.12,0,0,0,.73-1.4L105.07,91l1.21-1.33,8.36,26.75a1.12,1.12,0,0,0,1.06.79,1.27,1.27,0,0,0,.34,0,1.12,1.12,0,0,0,.73-1.4l-8.71-27.88s0-.07,0-.11l15.75-17.29,13.57,24.13a1.11,1.11,0,0,0,1,.57l28.36.32,13.9,24.73a1.14,1.14,0,0,0,1,.57,1.08,1.08,0,0,0,.54-.15,1.12,1.12,0,0,0,.43-1.52L168.7,94.56l14.36-24.23,27.92.32,14,24.9a1.14,1.14,0,0,0,1,.57l29.2.33h0a1.12,1.12,0,0,0,1-.55l13.49-22.77a1.1,1.1,0,0,0,.4.08l29.21.34h0a1.12,1.12,0,0,0,0-2.23L270.88,71l.13-.21a1.12,1.12,0,0,0,0-1.12l-.11-.2,28.35.32ZM255.67,46.9l-29.12-.33.61-1,27.92.32Zm-72-27.15,27.92.31L225.24,44.4l-7.12,12-7.11,12-27.92-.32L169.41,43.76Zm-64.4,3,18.31,20.8L127.12,61.12l-3.7,6.25-27-6.07L93.8,33.71ZM167,93.12a1.15,1.15,0,0,0-.29.11l0,0L139,92.93,125.28,68.6l7.12-12,7.12-12,27.92.32,13.68,24.33Zm87.57,1.09-27.92-.32L212.93,69.55l7.11-12,5.19-8.76,31.7.36,11.83,21Z"/><path class="cls-2" d="M316.52,69.25a7.1,7.1,0,1,0-.77,5.38A7.09,7.09,0,0,0,316.52,69.25Zm-2.69,4.24a4.87,4.87,0,1,1-8.38-5,4.83,4.83,0,0,1,3-2.23,4.65,4.65,0,0,1,1.22-.16,4.88,4.88,0,0,1,4.18,7.35Z"/><path class="cls-3" d="M190.21,122.54a7.1,7.1,0,1,0-3.64,13.21,7.25,7.25,0,0,0,1.78-.23,7.1,7.1,0,0,0,1.86-13Zm.56,8.59a4.87,4.87,0,1,1-5.39-7.2,5,5,0,0,1,1.21-.15,4.87,4.87,0,0,1,4.18,7.35Z"/><path class="cls-4" d="M122.62,120.52A7.1,7.1,0,0,0,112.9,123a7.1,7.1,0,1,0,9.72-2.48Zm.57,8.58a4.87,4.87,0,1,1-5.39-7.19,5,5,0,0,1,1.21-.16,4.88,4.88,0,0,1,4.18,7.35Z"/><path class="cls-5" d="M92.8,115.25a7.1,7.1,0,0,0-7.23,12.22,7,7,0,0,0,3.6,1,7.1,7.1,0,0,0,6.89-8.86A7,7,0,0,0,92.8,115.25Zm.57,8.59a4.86,4.86,0,1,1-1.7-6.67,4.87,4.87,0,0,1,1.7,6.67Z"/><path class="cls-6" d="M24.49,100.07a7.1,7.1,0,1,0-3.63,13.21,7.1,7.1,0,0,0,3.63-13.21Zm.57,8.59a4.86,4.86,0,1,1-5.39-7.2,5,5,0,0,1,1.21-.15,4.87,4.87,0,0,1,4.18,7.35Z"/><path class="cls-7" d="M53.83,60.89l.43-3.77,1.28-15.19.62-8.86,2.68,0,2.56,0,.47,1.77c.14.48.31,1,.51,1.67s.56,1.71,1.06,3.2L66,47l3.11,9.7L73.12,47l4.62-10.6c.16-.38.32-.79.48-1.21s.4-1.12.74-2.07l2.75,0,2.61,0-.26,9.72L84,49.17c0,.6,0,1.19,0,1.79l0,4.67v2.63c0,.3,0,1.17,0,2.63l-1.8,0c-.42,0-1,0-1.85,0l.12-2.59.3-14.67c0-1.65.07-3.48.07-5.49l0-1.67L71.88,57.93l-1.19,3c-.88,0-1.5,0-1.85,0s-1.08,0-2,0L64.45,53.2,62,45.64l-2.48-7.29c-.1-.33-.29-.91-.54-1.76L58.68,39,57.43,56.51c0,.58,0,1.17-.07,1.75s0,1.46-.07,2.63l-1.71,0Z"/><path class="cls-7" d="M104.22,60.89l.41-5.48.46-10.13.21-8.52c0-1.73,0-3,0-3.69,1.63,0,3,0,4,0s2,0,3.07,0,2,0,2.76,0a21.48,21.48,0,0,1,3.46.26,6.25,6.25,0,0,1,2.79,1.21,6,6,0,0,1,1.82,2.21,6.76,6.76,0,0,1,.58,2.84,8.61,8.61,0,0,1-.46,2.83,7.75,7.75,0,0,1-1.35,2.37A7.38,7.38,0,0,1,120,46.48a8.94,8.94,0,0,1-2.34.83,24.52,24.52,0,0,1-2.57.39l3.59,5.73,3.71,5.68c.26.4.63,1,1.12,1.78l-2.11,0c-.38,0-1.1,0-2.17,0l-1.47-2.79c-.3-.55-.6-1.08-.9-1.61l-1-1.72-4.62-7.52c-.19-.3-.5-.82-.94-1.57A15.82,15.82,0,0,0,113,46a9.91,9.91,0,0,0,3.7-.67,5.34,5.34,0,0,0,2.57-2.09,5.71,5.71,0,0,0,.91-3.15,5.12,5.12,0,0,0-.29-1.74A3.25,3.25,0,0,0,119,37a4.31,4.31,0,0,0-1.23-.79,5.88,5.88,0,0,0-1.55-.37,15.93,15.93,0,0,0-2-.12l-2.9,0c-1.25,0-2,0-2.38,0q-.63,13.69-.77,25.19l-2,0Z"/><path class="cls-8" d="M46.37,65.31c-.15.72-.31,1.63-.46,2.74a27.32,27.32,0,0,1-3.26.63,22.9,22.9,0,0,1-2.74.17,15.24,15.24,0,0,1-4.39-.59,7.57,7.57,0,0,1-3.33-2,8.74,8.74,0,0,1-2-3.33,12.92,12.92,0,0,1-.6-4,13.16,13.16,0,0,1,1.11-5.41,8.76,8.76,0,0,1,3.35-3.91,10.37,10.37,0,0,1,5.67-1.43,11.24,11.24,0,0,1,3.4.52,6.81,6.81,0,0,1,2.7,1.57,7.3,7.3,0,0,1,1.66,2.61,9.58,9.58,0,0,1,.58,3.39A8.83,8.83,0,0,1,48,57.64H33.05c0,.71-.07,1.26-.07,1.64a8.33,8.33,0,0,0,.86,3.78,5.76,5.76,0,0,0,2.53,2.61,8.07,8.07,0,0,0,3.87.89A19.46,19.46,0,0,0,46.37,65.31ZM33.21,56H44.85a10.1,10.1,0,0,0-.16-1.92,5.56,5.56,0,0,0-.5-1.41,4,4,0,0,0-1-1.27,4.2,4.2,0,0,0-1.52-.82,6.34,6.34,0,0,0-1.93-.29,7.45,7.45,0,0,0-2.12.31,6.33,6.33,0,0,0-1.77.86,5.69,5.69,0,0,0-1.31,1.28,5.88,5.88,0,0,0-.8,1.42A12.82,12.82,0,0,0,33.21,56Z"/><path class="cls-8" d="M145.18,62.28c.12-.57.24-1.42.37-2.54a35.19,35.19,0,0,1,4.08-.83,26,26,0,0,1,3.37-.22,15.7,15.7,0,0,1,3.29.32,6.73,6.73,0,0,1,2.55,1,3.58,3.58,0,0,1,1.34,1.66,5.83,5.83,0,0,1,.34,2c0,.89-.07,2.4-.21,4.52s-.24,4.07-.31,5.87-.11,3.4-.11,4.8c-.7,0-1.27,0-1.72,0s-1,0-1.78,0l.42-5.33.3-6.31c-.46.35-.8.6-1,.74a5.06,5.06,0,0,1-.77.4,8.64,8.64,0,0,1-.95.35c-.35.12-1,.31-2,.58s-1.71.48-2.12.63a11.49,11.49,0,0,0-2.13.86,5.63,5.63,0,0,0-1.31.93,3.17,3.17,0,0,0-.75,1,3.43,3.43,0,0,0-.25,1.31,2.87,2.87,0,0,0,.62,1.83A3.3,3.3,0,0,0,148,77a7.57,7.57,0,0,0,2.27.3,14.86,14.86,0,0,0,1.72-.11,15.66,15.66,0,0,0,2.4-.59,19.94,19.94,0,0,0-.62,2.32,20.73,20.73,0,0,1-2.33.34c-.59,0-1.16.07-1.7.07a11.4,11.4,0,0,1-4.18-.62,4.51,4.51,0,0,1-2.24-1.91,5.38,5.38,0,0,1-.74-2.78,4.67,4.67,0,0,1,.26-1.62,5.1,5.1,0,0,1,.71-1.35,6,6,0,0,1,1.28-1.21,9.53,9.53,0,0,1,1.74-1c.61-.26,1.31-.51,2.12-.77s2.1-.59,3.89-1c.57-.13,1.06-.27,1.46-.4s.77-.28,1.08-.4a4.27,4.27,0,0,0,.82-.46,3.29,3.29,0,0,0,.64-.65,2.58,2.58,0,0,0,.43-.77,2.38,2.38,0,0,0,.14-.78,2.32,2.32,0,0,0-.63-1.64,3.26,3.26,0,0,0-1.63-1,9.2,9.2,0,0,0-2.37-.27,18.64,18.64,0,0,0-4.91.69C147,61.62,146.15,61.9,145.18,62.28Z"/><path class="cls-8" d="M195.91,56.42q.39-6,.76-14.25.26-6,.37-12.41l1.82,0c.38,0,1,0,1.74,0L200,41.23l-.43,11.6-.08,3.59-1.72,0Z"/><path class="cls-8" d="M247.23,82.57l-1.6,0h-1.7l.23-4.21A15.72,15.72,0,0,1,243.09,80a7.47,7.47,0,0,1-2.49,2.07,7.88,7.88,0,0,1-1.81.65,9,9,0,0,1-2.11.23,9.08,9.08,0,0,1-3.54-.68,7.76,7.76,0,0,1-2.8-2,7.54,7.54,0,0,1-1.66-3,12.15,12.15,0,0,1-.51-3.53,12.85,12.85,0,0,1,1-4.84,10.19,10.19,0,0,1,2.7-3.94,9.74,9.74,0,0,1,3.95-2.15,17.42,17.42,0,0,1,4.69-.61,25.46,25.46,0,0,1,4.08.39c.07-1.42.1-2.6.1-3.53,0-1.36,0-2.45,0-3.29l1.78,0c.44,0,1,0,1.78,0l-.57,11-.39,12.63Zm-2.81-17.42a13.26,13.26,0,0,0-2-.45,15,15,0,0,0-1.61-.1,11.8,11.8,0,0,0-3.58.54,7.72,7.72,0,0,0-3,1.77,8.19,8.19,0,0,0-2,3.12,10.63,10.63,0,0,0-.7,3.72,8.6,8.6,0,0,0,.66,3.38,5.31,5.31,0,0,0,2.06,2.47,6,6,0,0,0,3.25.88,6.46,6.46,0,0,0,2-.3,5.37,5.37,0,0,0,1.67-.89,6.49,6.49,0,0,0,1.42-1.58,8.53,8.53,0,0,0,1.05-2.3,15.48,15.48,0,0,0,.49-3.11q.08-1,.18-3.69Z"/></svg>