<svg id="Layer_10" data-name="Layer 10" xmlns="http://www.w3.org/2000/svg" xmlns:xlink="http://www.w3.org/1999/xlink" viewBox="0 0 311.57 123.39"><defs><style>.cls-1{fill:url(#linear-gradient);}.cls-2{fill:url(#linear-gradient-2);}.cls-3{fill:url(#linear-gradient-3);}.cls-4{fill:url(#linear-gradient-4);}.cls-5{fill:url(#linear-gradient-5);}.cls-6{fill:url(#linear-gradient-6);}.cls-7{fill:#262262;stroke:#262262;stroke-width:1.5px;}.cls-7,.cls-8{stroke-miterlimit:10;}.cls-8{fill:#fff;stroke:#fff;stroke-width:0.75px;}</style><linearGradient id="linear-gradient" x1="18.09" y1="54.21" x2="292.3" y2="54.21" gradientUnits="userSpaceOnUse"><stop offset="0" stop-color="#f9ed32"/><stop offset="0.03" stop-color="#f9ee3a"/><stop offset="0.29" stop-color="#fbf47f"/><stop offset="0.53" stop-color="#fdf9b6"/><stop offset="0.74" stop-color="#fefcde"/><stop offset="0.9" stop-color="#fffef6"/><stop offset="1" stop-color="#fff"/></linearGradient><linearGradient id="linear-gradient-2" x1="294.45" y1="56.08" x2="308.65" y2="56.08" xlink:href="#linear-gradient"/><linearGradient id="linear-gradient-3" x1="171.39" y1="113.71" x2="185.6" y2="113.71" xlink:href="#linear-gradient"/><linearGradient id="linear-gradient-4" x1="103.81" y1="111.69" x2="118.01" y2="111.69" xlink:href="#linear-gradient"/><linearGradient id="linear-gradient-5" x1="74" y1="106.43" x2="88.2" y2="106.43" xlink:href="#linear-gradient"/><linearGradient id="linear-gradient-6" x1="5.68" y1="91.24" x2="19.89" y2="91.24" xlink:href="#linear-gradient"/></defs><path class="cls-1" d="M291.18,54.85a1.12,1.12,0,0,0,0-2.24L262,52.28h0a1.17,1.17,0,0,0-.38.07l-13-23.08a1.11,1.11,0,0,0-1-.57l-28.56-.33-14-24.89a1.11,1.11,0,0,0-1-.57l-29.21-.34a1.1,1.1,0,0,0-1,.55L159.37,27.73l-28-.31-19.1-21.7A1.11,1.11,0,0,0,111,5.43L84.08,17.05a1.13,1.13,0,0,0-.67,1.13L86.1,46.89l-19.17,21L39.24,61.71h-.47l-.11,0-.1,0-.1,0-.09,0-.08.07L38.2,62l0,0L18.38,83.52a1.11,1.11,0,0,0,.82,1.87A1.11,1.11,0,0,0,20,85L39.38,64l26.89,6L74.84,97.5a1.13,1.13,0,0,0,1.07.78,1.26,1.26,0,0,0,.33,0,1.11,1.11,0,0,0,.73-1.4L68.49,69.66a1.45,1.45,0,0,0,.09-.22v0l.7-.76,8.46,27.1a1.13,1.13,0,0,0,1.07.78,1.26,1.26,0,0,0,.33-.05,1.11,1.11,0,0,0,.73-1.4L71.16,67.21a1,1,0,0,0-.21-.39L87.64,48.51l26.08,5.85L95.2,74.69A1.11,1.11,0,0,0,94.63,76l8.71,27.88a1.12,1.12,0,0,0,1.06.79,1.33,1.33,0,0,0,.34-.05,1.12,1.12,0,0,0,.73-1.4L97,76.05l1.21-1.33,8.36,26.75a1.11,1.11,0,0,0,1.06.78,1,1,0,0,0,.34,0,1.12,1.12,0,0,0,.73-1.4L100,72.93s0-.08,0-.11l15.75-17.29,13.57,24.13a1.14,1.14,0,0,0,1,.57l28.36.32,13.9,24.72a1.11,1.11,0,0,0,1,.57,1.07,1.07,0,0,0,.55-.14,1.12,1.12,0,0,0,.43-1.52L160.61,79.63,175,55.4l27.92.32,14,24.89a1.09,1.09,0,0,0,1,.57l29.2.34h0a1.12,1.12,0,0,0,1-.55L261.52,58.2a1.1,1.1,0,0,0,.4.08l29.21.33h0a1.12,1.12,0,1,0,0-2.23l-28.36-.32.13-.22a1.1,1.1,0,0,0,0-1.11l-.11-.21,28.35.33ZM247.58,32l-29.12-.33.61-1,27.92.32Zm-72-27.16,27.92.32,13.68,24.34-7.12,12-7.11,12L175,53.17,161.32,28.83Zm-64.4,3,18.31,20.8L119,46.19l-3.7,6.25-27-6.07L85.71,18.78Zm47.72,70.39a1.11,1.11,0,0,0-.29.1l0,0L130.88,78,117.19,53.67l7.12-12,7.12-12,27.92.32L173,54.3Zm87.57,1.09L218.52,79,204.84,54.62l7.11-12,5.19-8.75,31.7.36,11.83,21Z"/><path class="cls-2" d="M308.43,54.32a7.09,7.09,0,1,0-6.89,8.86,7.17,7.17,0,0,0,1.77-.23,7.08,7.08,0,0,0,5.12-8.63Zm-2.69,4.24a4.85,4.85,0,0,1-3,2.23,4.8,4.8,0,0,1-3.68-.53,4.87,4.87,0,0,1,1.27-8.9,5.09,5.09,0,0,1,1.22-.15,4.88,4.88,0,0,1,4.18,7.35Z"/><path class="cls-3" d="M182.11,107.61a7.1,7.1,0,1,0-3.63,13.2,7.1,7.1,0,0,0,6.89-8.86A7,7,0,0,0,182.11,107.61Zm.57,8.58a4.86,4.86,0,1,1-8.37-5,4.81,4.81,0,0,1,3-2.23,4.57,4.57,0,0,1,1.21-.16,4.87,4.87,0,0,1,4.18,7.35Z"/><path class="cls-4" d="M114.53,105.58a7.1,7.1,0,1,0,2.49,9.73A7.08,7.08,0,0,0,114.53,105.58Zm.57,8.59a4.87,4.87,0,1,1-5.39-7.19,4.52,4.52,0,0,1,1.21-.16,4.87,4.87,0,0,1,4.18,7.35Z"/><path class="cls-5" d="M84.71,100.32A7.1,7.1,0,1,0,88,104.67,7,7,0,0,0,84.71,100.32Zm.57,8.59a4.87,4.87,0,1,1,.53-3.69A4.87,4.87,0,0,1,85.28,108.91Z"/><path class="cls-6" d="M16.4,85.14a7.1,7.1,0,1,0-3.63,13.2,7.09,7.09,0,0,0,3.63-13.2ZM17,93.72a4.86,4.86,0,1,1-5.39-7.19,5,5,0,0,1,1.21-.15A4.86,4.86,0,0,1,17,93.72Z"/><path class="cls-7" d="M45.74,46l.43-3.77L47.45,27l.62-8.87,2.68,0,2.56,0,.47,1.78c.14.47.31,1,.51,1.67l1.06,3.2L57.86,32,61,41.72,65,32l4.62-10.59c.16-.38.32-.79.48-1.22l.74-2.07c.88,0,1.8,0,2.75,0l2.61,0L76,27.86l-.11,6.38c0,.59,0,1.19,0,1.79l0,4.67v2.63c0,.29,0,1.17,0,2.63l-1.79-.05c-.42,0-1,0-1.85.05l.12-2.59.3-14.68c0-1.64.07-3.47.07-5.48l0-1.67L63.79,43,62.6,46l-1.85-.05c-.43,0-1.08,0-2,.05l-2.42-7.69-2.5-7.56-2.48-7.3c-.11-.32-.29-.91-.55-1.75l-.24,2.39L49.34,41.57c0,.59-.05,1.17-.07,1.76s-.05,1.46-.07,2.63l-1.71-.05Z"/><path class="cls-7" d="M96.13,46l.41-5.49L97,30.34l.21-8.52c0-1.72,0-2.95,0-3.69,1.63,0,3,.05,4,.05s2,0,3.07-.05,2,0,2.76,0a20.34,20.34,0,0,1,3.46.27,6.25,6.25,0,0,1,2.79,1.21,6,6,0,0,1,1.82,2.2,6.84,6.84,0,0,1,.58,2.85,8.61,8.61,0,0,1-.46,2.83A7.59,7.59,0,0,1,114,29.81a7.25,7.25,0,0,1-2.11,1.74,9.32,9.32,0,0,1-2.34.83,24.52,24.52,0,0,1-2.57.39l3.59,5.73,3.71,5.68c.26.4.63,1,1.12,1.78l-2.11-.05-2.17.05-1.47-2.8-.9-1.61-1-1.71-4.62-7.52c-.19-.3-.5-.82-.94-1.57A15.82,15.82,0,0,0,105,31a9.72,9.72,0,0,0,3.7-.68,5.23,5.23,0,0,0,2.57-2.09,5.65,5.65,0,0,0,.91-3.14,5.22,5.22,0,0,0-.29-1.75,3.22,3.22,0,0,0-.9-1.35,4.59,4.59,0,0,0-1.23-.8,6.34,6.34,0,0,0-1.55-.36,14.2,14.2,0,0,0-2-.13l-2.9,0c-1.25,0-2,0-2.38,0q-.63,13.71-.77,25.2l-2-.05Z"/><path class="cls-8" d="M38.28,50.38c-.15.72-.31,1.63-.46,2.73a25.67,25.67,0,0,1-3.26.64,22.89,22.89,0,0,1-2.74.16,15.25,15.25,0,0,1-4.39-.58,7.57,7.57,0,0,1-3.33-2,8.74,8.74,0,0,1-2-3.33,12.93,12.93,0,0,1-.6-4,13.11,13.11,0,0,1,1.11-5.4A8.76,8.76,0,0,1,26,34.68a10.37,10.37,0,0,1,5.67-1.43,10.94,10.94,0,0,1,3.4.52,6.69,6.69,0,0,1,2.7,1.57A7.13,7.13,0,0,1,39.4,38,9.5,9.5,0,0,1,40,41.34a8.61,8.61,0,0,1-.11,1.36H25c-.05.72-.07,1.27-.07,1.64a8.39,8.39,0,0,0,.85,3.78,5.81,5.81,0,0,0,2.54,2.62,8.18,8.18,0,0,0,3.87.89A19.46,19.46,0,0,0,38.28,50.38Zm-13.16-9.3H36.76a10.87,10.87,0,0,0-.16-1.91,5.76,5.76,0,0,0-.5-1.42,4.14,4.14,0,0,0-1-1.27,4.36,4.36,0,0,0-1.52-.82,6.34,6.34,0,0,0-1.93-.28,7.06,7.06,0,0,0-2.12.31,6.33,6.33,0,0,0-1.77.86,5.69,5.69,0,0,0-1.31,1.28,5.88,5.88,0,0,0-.8,1.42A12.27,12.27,0,0,0,25.12,41.08Z"/><path class="cls-8" d="M137.09,47.35c.12-.58.24-1.42.37-2.54a35.19,35.19,0,0,1,4.08-.83,26,26,0,0,1,3.37-.23,15.68,15.68,0,0,1,3.29.33,6.73,6.73,0,0,1,2.55,1,3.53,3.53,0,0,1,1.34,1.66,5.81,5.81,0,0,1,.34,2c0,.9-.07,2.41-.21,4.52s-.24,4.08-.31,5.87-.11,3.4-.11,4.81c-.7,0-1.27,0-1.72,0s-1,0-1.78,0l.42-5.33.3-6.31c-.46.35-.8.6-1,.74a6.15,6.15,0,0,1-.77.4c-.29.12-.61.24-.95.35l-2,.58c-1,.27-1.71.48-2.12.62a13.07,13.07,0,0,0-2.13.86,6,6,0,0,0-1.31.94,3.17,3.17,0,0,0-.75,1,3.38,3.38,0,0,0-.25,1.3,2.88,2.88,0,0,0,.62,1.84,3.22,3.22,0,0,0,1.58,1.08,7.24,7.24,0,0,0,2.27.31,13,13,0,0,0,1.72-.12,13.6,13.6,0,0,0,2.4-.59,20.83,20.83,0,0,0-.62,2.33,23.36,23.36,0,0,1-2.33.34c-.6.05-1.16.07-1.7.07a11.17,11.17,0,0,1-4.18-.63,4.44,4.44,0,0,1-2.24-1.9,5.38,5.38,0,0,1-.74-2.78,4.76,4.76,0,0,1,.26-1.63,5.2,5.2,0,0,1,.71-1.34,5.78,5.78,0,0,1,1.28-1.21,8.69,8.69,0,0,1,1.74-1,21.76,21.76,0,0,1,2.12-.77c.81-.26,2.1-.6,3.89-1a13.92,13.92,0,0,0,1.46-.4c.41-.13.76-.27,1.08-.4a3.8,3.8,0,0,0,.82-.46,3.23,3.23,0,0,0,.64-.64,2.58,2.58,0,0,0,.43-.77,2.38,2.38,0,0,0,.14-.78,2.32,2.32,0,0,0-.63-1.64,3.26,3.26,0,0,0-1.63-1,9.2,9.2,0,0,0-2.37-.27,16.75,16.75,0,0,0-2.61.2,18.17,18.17,0,0,0-2.3.49C138.86,46.69,138.06,47,137.09,47.35Z"/><path class="cls-8" d="M187.82,41.49q.39-6,.76-14.26.25-6,.37-12.4l1.82,0,1.74,0-.6,11.47-.43,11.6-.08,3.59c-.77,0-1.34,0-1.72,0Z"/><path class="cls-8" d="M239.14,67.64c-.77,0-1.3,0-1.6,0h-1.7l.23-4.22A14.76,14.76,0,0,1,235,65.07a7.53,7.53,0,0,1-1.07,1.13,7.45,7.45,0,0,1-1.42.94,7.89,7.89,0,0,1-1.81.66,9.54,9.54,0,0,1-2.11.23,9.26,9.26,0,0,1-3.54-.68,7.66,7.66,0,0,1-2.8-2,7.43,7.43,0,0,1-1.66-3,12.2,12.2,0,0,1-.51-3.53,13,13,0,0,1,.95-4.84,10.32,10.32,0,0,1,2.71-3.94A9.88,9.88,0,0,1,227.69,48a17.83,17.83,0,0,1,4.69-.6,25.46,25.46,0,0,1,4.08.39c.07-1.42.1-2.6.1-3.54,0-1.35,0-2.45,0-3.28l1.78,0,1.78,0-.57,11-.39,12.64Zm-2.81-17.42a12.14,12.14,0,0,0-2-.45,12.76,12.76,0,0,0-1.61-.1,11.8,11.8,0,0,0-3.58.54,7.72,7.72,0,0,0-3,1.77,8.19,8.19,0,0,0-2,3.12,10.58,10.58,0,0,0-.7,3.71,8.68,8.68,0,0,0,.66,3.39,5.24,5.24,0,0,0,2.06,2.46,5.87,5.87,0,0,0,3.25.89,6.46,6.46,0,0,0,2-.3,5.37,5.37,0,0,0,1.67-.89,6.49,6.49,0,0,0,1.42-1.58,8.6,8.6,0,0,0,1.05-2.31,15.37,15.37,0,0,0,.49-3.1q.07-1,.18-3.69Z"/></svg>